<?xml version="1.0" encoding="utf-8"?>
<!-- Generator: Adobe Illustrator 25.0.1, SVG Export Plug-In . SVG Version: 6.00 Build 0)  -->
<svg version="1.1" xmlns="http://www.w3.org/2000/svg" xmlns:xlink="http://www.w3.org/1999/xlink" x="0px" y="0px"
	 viewBox="0 0 1024 768" enable-background="new 0 0 1024 768" xml:space="preserve">
<g id="레이어_2" display="none">
	<g display="inline">
		<rect width="1024" height="768"/>
	</g>
</g>
<g id="레이어_1">
	<path fill="none" stroke="#39B54A" stroke-width="3" stroke-miterlimit="10" d="M693.2164307,24.8137836"/>
	<path fill="none" stroke="#39B54A" stroke-width="3" stroke-miterlimit="10" d="M1162.1124268,93.069191h-70"/>
	<path fill="none" stroke="#39B54A" stroke-width="3" stroke-miterlimit="10" d="M1094.6124268,121.569191v69.9999924"/>
	<path fill="none" stroke="#39B54A" stroke-width="3" stroke-miterlimit="10" d="M753.1738281-30.5479069"/>
	<path fill="none" stroke="#39B54A" stroke-width="3" stroke-miterlimit="10" d="M1081.8875732,14.5691872
		c27.5,0,50,22.5,50,50.0000038"/>
	<g>
		<path fill="none" stroke="#39B54A" stroke-width="3" stroke-miterlimit="10" d="M845.598999,249.0771942
			c27.5,0,50,22.5000153,50,50.0000153"/>
		<path fill="none" stroke="#39B54A" stroke-width="3" stroke-miterlimit="10" d="M845.598999,136.4909821H606.0596924"/>
		<path fill="none" stroke="#39B54A" stroke-width="3" stroke-miterlimit="10" d="M708.7608643,305.0534668"/>
		<path fill="none" stroke="#39B54A" stroke-width="3" stroke-miterlimit="10" d="M895.598999,186.4909821v113.3922882"/>
		<path fill="none" stroke="#39B54A" stroke-width="3" stroke-miterlimit="10" d="M895.598999,299.0772095v169.0395203"/>
		<path fill="none" stroke="#39B54A" stroke-width="3" stroke-miterlimit="10" d="M845.598999,136.4909821c27.5,0,50,22.5,50,50"/>
		<path fill="none" stroke="#39B54A" stroke-width="3" stroke-miterlimit="10" d="M845.598999,249.0771942h-667.197998"/>
		<path fill="none" stroke="#39B54A" stroke-width="3" stroke-miterlimit="10" d="M895.598999,468.1167297
			c0,27.5-22.5,50.0000305-50,50.0000305"/>
		<path fill="none" stroke="#39B54A" stroke-width="3" stroke-miterlimit="10" d="M845.598999,518.1167603h-667.197998"/>
		<path fill="none" stroke="#39B54A" stroke-width="3" stroke-miterlimit="10" d="M178.4009857,518.1167603
			c-27.5,0-50-22.5000305-50-50.0000305"/>
		<path fill="none" stroke="#39B54A" stroke-width="3" stroke-miterlimit="10" d="M128.4009857,468.1167297V299.0772095"/>
		<path fill="none" stroke="#39B54A" stroke-width="3" stroke-miterlimit="10" d="M128.4009857,299.0772095
			c0-27.5,22.5-50.0000153,50-50.0000153"/>
		<path fill="none" stroke="#39B54A" stroke-width="3" stroke-miterlimit="10" d="M178.4009857,631.5090332h239.5393219"/>
		<path fill="none" stroke="#39B54A" stroke-width="3" stroke-miterlimit="10" d="M128.4009857,581.5090332V468.1167297"/>
		<path fill="none" stroke="#39B54A" stroke-width="3" stroke-miterlimit="10" d="M178.4009857,631.5090332c-27.5,0-50-22.5-50-50"
			/>
	</g>
</g>
</svg>
