<svg xmlns="http://www.w3.org/2000/svg" viewBox="0 0 1024 768"><g id="레이어_2" data-name="레이어 2"><rect width="1024" height="768"/></g><g id="레이어_1" data-name="레이어 1"><path d="M845.599,249.0772a50.147,50.147,0,0,1,50,50" fill="none" stroke="#39b54a" stroke-miterlimit="10" stroke-width="3"/><line x1="845.59901" y1="136.49098" x2="606.0597" y2="136.49098" fill="none" stroke="#39b54a" stroke-miterlimit="10" stroke-width="3"/><line x1="895.59901" y1="186.49098" x2="895.59901" y2="299.88326" fill="none" stroke="#39b54a" stroke-miterlimit="10" stroke-width="3"/><line x1="895.59901" y1="299.0772" x2="895.59901" y2="468.11674" fill="none" stroke="#39b54a" stroke-miterlimit="10" stroke-width="3"/><path d="M845.599,136.491a50.147,50.147,0,0,1,50,50" fill="none" stroke="#39b54a" stroke-miterlimit="10" stroke-width="3"/><line x1="845.59901" y1="249.0772" x2="178.40099" y2="249.0772" fill="none" stroke="#39b54a" stroke-miterlimit="10" stroke-width="3"/><path d="M895.599,468.11674a50.147,50.147,0,0,1-50,50" fill="none" stroke="#39b54a" stroke-miterlimit="10" stroke-width="3"/><line x1="845.59901" y1="518.11674" x2="178.40099" y2="518.11674" fill="none" stroke="#39b54a" stroke-miterlimit="10" stroke-width="3"/><path d="M178.401,518.11674a50.147,50.147,0,0,1-50-50" fill="none" stroke="#39b54a" stroke-miterlimit="10" stroke-width="3"/><line x1="128.40099" y1="468.11674" x2="128.40099" y2="299.0772" fill="none" stroke="#39b54a" stroke-miterlimit="10" stroke-width="3"/><path d="M128.401,299.0772a50.147,50.147,0,0,1,50-50" fill="none" stroke="#39b54a" stroke-miterlimit="10" stroke-width="3"/><line x1="178.40099" y1="631.50902" x2="417.9403" y2="631.50902" fill="none" stroke="#39b54a" stroke-miterlimit="10" stroke-width="3"/><line x1="128.40099" y1="581.50902" x2="128.40099" y2="468.11674" fill="none" stroke="#39b54a" stroke-miterlimit="10" stroke-width="3"/><path d="M178.401,631.509a50.147,50.147,0,0,1-50-50" fill="none" stroke="#39b54a" stroke-miterlimit="10" stroke-width="3"/></g><g id="레이어_3" data-name="레이어 3"><circle cx="895.59901" cy="292.08943" r="5.1702" fill="#fff" stroke="#39b54a" stroke-miterlimit="10" stroke-width="2"/><text transform="translate(905.45084 296.08312)" font-size="14" fill="#fff" font-family="NanumSquareR, NanumSquare">성수</text><circle cx="895.59901" cy="334.80344" r="5.1702" fill="#fff" stroke="#39b54a" stroke-miterlimit="10" stroke-width="2"/><text transform="translate(905.45084 338.79713)" font-size="14" fill="#fff" font-family="NanumSquareR, NanumSquare">건대입구</text><circle cx="895.59901" cy="377.51755" r="5.1702" fill="#39b54a"/><text transform="translate(905.45084 381.51123)" font-size="14" fill="#fff" font-family="NanumSquareR, NanumSquare">구의</text><circle cx="895.59901" cy="420.23157" r="5.1702" fill="#39b54a"/><text transform="translate(905.45084 424.22525)" font-size="14" fill="#fff" font-family="NanumSquareR, NanumSquare">강변</text><circle cx="895.59901" cy="462.94618" r="5.1702" fill="#39b54a"/><text transform="translate(905.45084 466.93987)" font-size="14" fill="#fff" font-family="NanumSquareR, NanumSquare">잠실나루</text><circle cx="128.40099" cy="473.28585" r="5.1702" fill="#fff" stroke="#39b54a" stroke-miterlimit="10" stroke-width="2"/><text transform="translate(138.25287 477.27954)" font-size="14" fill="#fff" font-family="NanumSquareR, NanumSquare">신도림</text><circle cx="128.40099" cy="430.73277" r="5.1702" fill="#39b54a"/><text transform="translate(138.25281 434.72644)" font-size="14" fill="#fff" font-family="NanumSquareR, NanumSquare">문래</text><circle cx="128.40099" cy="388.17887" r="5.1702" fill="#fff" stroke="#39b54a" stroke-miterlimit="10" stroke-width="2"/><text transform="translate(138.25287 392.17255)" font-size="14" fill="#fff" font-family="NanumSquareR, NanumSquare">영등포구청</text><circle cx="128.40099" cy="345.62466" r="5.1702" fill="#fff" stroke="#39b54a" stroke-miterlimit="10" stroke-width="2"/><text transform="translate(138.25287 349.61834)" font-size="14" fill="#fff" font-family="NanumSquareR, NanumSquare">당산</text><circle cx="128.40099" cy="303.07055" r="5.1702" fill="#fff" stroke="#39b54a" stroke-miterlimit="10" stroke-width="2"/><text transform="translate(138.25287 307.06424)" font-size="14" fill="#fff" font-family="NanumSquareR, NanumSquare">합정</text><circle cx="179.32443" cy="518.11674" r="5.1702" fill="#fff" stroke="#39b54a" stroke-miterlimit="10" stroke-width="2"/><text transform="translate(166.58423 539.45082)" font-size="14" fill="#fff" font-family="NanumSquareR, NanumSquare">대림</text><circle cx="257.61602" cy="518.11674" r="5.1702" fill="#39b54a"/><text transform="translate(238.50671 539.45084)" font-size="14" fill="#fff" font-family="NanumSquareR, NanumSquare">신대방</text><circle cx="296.7633" cy="518.11674" r="5.1702" fill="#39b54a"/><text transform="translate(284.02313 539.45082)" font-size="14" fill="#fff" font-family="NanumSquareR, NanumSquare">신림</text><circle cx="335.90958" cy="518.11674" r="5.1702" fill="#39b54a"/><text transform="translate(323.16943 539.45082)" font-size="14" fill="#fff" font-family="NanumSquareR, NanumSquare">봉천</text><circle cx="414.2012" cy="518.11674" r="5.1702" fill="#39b54a"/><text transform="translate(395.09189 539.45082)" font-size="14" fill="#fff" font-family="NanumSquareR, NanumSquare">낙성대</text><circle cx="453.34867" cy="518.11674" r="5.1702" fill="#fff" stroke="#39b54a" stroke-miterlimit="10" stroke-width="2"/><text transform="translate(440.60849 539.45082)" font-size="14" fill="#fff" font-family="NanumSquareR, NanumSquare">사당</text><circle cx="492.4948" cy="518.11674" r="5.1702" fill="#39b54a"/><text transform="translate(479.75464 539.45082)" font-size="14" fill="#fff" font-family="NanumSquareR, NanumSquare">방배</text><circle cx="531.64108" cy="518.11674" r="5.1702" fill="#39b54a"/><text transform="translate(518.90091 539.45082)" font-size="14" fill="#fff" font-family="NanumSquareR, NanumSquare">서초</text><circle cx="570.78808" cy="518.11674" r="5.1702" fill="#fff" stroke="#39b54a" stroke-miterlimit="10" stroke-width="2"/><text transform="translate(558.04785 539.45082)" font-size="14" fill="#fff" font-family="NanumSquareR, NanumSquare">교대</text><circle cx="609.93433" cy="518.11674" r="5.1702" fill="#fff" stroke="#39b54a" stroke-miterlimit="10" stroke-width="2"/><text transform="translate(597.19412 539.45082)" font-size="14" fill="#fff" font-family="NanumSquareR, NanumSquare">강남</text><circle cx="649.08016" cy="518.11674" r="5.1702" fill="#39b54a"/><text transform="translate(636.34 539.45082)" font-size="14" fill="#fff" font-family="NanumSquareR, NanumSquare">역삼</text><circle cx="688.22675" cy="518.11674" r="5.1702" fill="#fff" stroke="#39b54a" stroke-miterlimit="10" stroke-width="2"/><text transform="translate(675.48654 539.45082)" font-size="14" fill="#fff" font-family="NanumSquareR, NanumSquare">선릉</text><circle cx="727.37306" cy="518.11674" r="5.1702" fill="#39b54a"/><text transform="translate(714.6329 539.45082)" font-size="14" fill="#fff" font-family="NanumSquareR, NanumSquare">역삼</text><circle cx="766.51899" cy="518.11674" r="5.1702" fill="#fff" stroke="#39b54a" stroke-miterlimit="10" stroke-width="2"/><text transform="translate(734.66965 505.38704)" font-size="14" fill="#fff" font-family="NanumSquareR, NanumSquare">종합운동장</text><circle cx="805.66538" cy="518.11674" r="5.1702" fill="#39b54a"/><text transform="translate(780.18596 539.45082)" font-size="14" fill="#fff" font-family="NanumSquareR, NanumSquare">잠실새내</text><circle cx="844.81198" cy="518.11655" r="5.1702" fill="#fff" stroke="#39b54a" stroke-miterlimit="10" stroke-width="2"/><text transform="translate(832.07201 505.38686)" font-size="14" fill="#fff" font-family="NanumSquareR, NanumSquare">잠실</text><circle cx="218.47018" cy="518.11674" r="5.1702" fill="#39b54a"/><text transform="translate(173.88055 505.38704)" font-size="14" fill="#fff" font-family="NanumSquareR, NanumSquare">구로디지털단지</text><circle cx="375.05483" cy="518.11674" r="5.1702" fill="#39b54a"/><text transform="translate(343.20544 505.38704)" font-size="14" fill="#fff" font-family="NanumSquareR, NanumSquare">서울대입구</text><circle cx="845.59901" cy="249.0772" r="5.1702" fill="#39b54a"/><text transform="translate(832.85901 236.3475)" font-size="14" fill="#fff" font-family="NanumSquareR, NanumSquare">뚝섬</text><circle cx="797.94176" cy="249.0772" r="5.1702" fill="#39b54a"/><text transform="translate(778.83262 236.3475)" font-size="14" fill="#fff" font-family="NanumSquareR, NanumSquare">한양대</text><circle cx="702.62797" cy="249.0772" r="5.1702" fill="#39b54a"/><text transform="translate(677.14871 236.3475)" font-size="14" fill="#fff" font-family="NanumSquareR, NanumSquare">상왕십리</text><circle cx="607.31376" cy="249.0772" r="5.1702" fill="#fff" stroke="#39b54a" stroke-miterlimit="10" stroke-width="2"/><text transform="translate(549.98495 236.3475)" font-size="14" fill="#fff" font-family="NanumSquareR, NanumSquare">동대문역사문화공원</text><circle cx="512.00028" cy="249.0772" r="5.1702" fill="#fff" stroke="#39b54a" stroke-miterlimit="10" stroke-width="2"/><text transform="translate(482.32086 236.3475)" font-size="14" fill="#fff" font-family="NanumSquareR, NanumSquare">을지로3가</text><circle cx="416.6865" cy="249.0772" r="5.1702" fill="#fff" stroke="#39b54a" stroke-miterlimit="10" stroke-width="2"/><text transform="translate(403.94653 236.3475)" font-size="14" fill="#fff" font-family="NanumSquareR, NanumSquare">시청</text><circle cx="321.37267" cy="249.0772" r="5.1702" fill="#39b54a"/><text transform="translate(308.63269 236.3475)" font-size="14" fill="#fff" font-family="NanumSquareR, NanumSquare">아현</text><circle cx="369.02858" cy="249.0772" r="5.1702" fill="#fff" stroke="#39b54a" stroke-miterlimit="10" stroke-width="2"/><text transform="translate(349.91943 236.3475)" font-size="14" fill="#fff" font-family="NanumSquareR, NanumSquare">충정로</text><circle cx="273.71571" cy="249.0772" r="5.1702" fill="#39b54a"/><text transform="translate(260.97565 236.3475)" font-size="14" fill="#fff" font-family="NanumSquareR, NanumSquare">이대</text><circle cx="226.05847" cy="249.0772" r="5.1702" fill="#39b54a"/><text transform="translate(213.31842 236.3475)" font-size="14" fill="#fff" font-family="NanumSquareR, NanumSquare">신촌</text><circle cx="178.40099" cy="249.0772" r="5.1702" fill="#fff" stroke="#39b54a" stroke-miterlimit="10" stroke-width="2"/><text transform="translate(152.92175 236.3475)" font-size="14" fill="#fff" font-family="NanumSquareR, NanumSquare">홍대입구</text><circle cx="464.34272" cy="249.0772" r="5.1702" fill="#39b54a"/><text transform="translate(432.49316 270.41128)" font-size="14" fill="#fff" font-family="NanumSquareR, NanumSquare">을지로입구</text><circle cx="559.65663" cy="249.0772" r="5.1702" fill="#fff" stroke="#39b54a" stroke-miterlimit="10" stroke-width="2"/><text transform="translate(529.97696 270.41128)" font-size="14" fill="#fff" font-family="NanumSquareR, NanumSquare">을지로4가</text><circle cx="654.97175" cy="249.0772" r="5.1702" fill="#fff" stroke="#39b54a" stroke-miterlimit="10" stroke-width="2"/><text transform="translate(642.23154 270.41128)" font-size="14" fill="#fff" font-family="NanumSquareR, NanumSquare">신당</text><circle cx="750.28433" cy="249.0772" r="5.1702" fill="#fff" stroke="#39b54a" stroke-miterlimit="10" stroke-width="2"/><text transform="translate(731.17497 270.41128)" font-size="14" fill="#fff" font-family="NanumSquareR, NanumSquare">왕십리</text></g></svg>